<svg width="54" height="57" viewBox="0 0 54 57" fill="none" xmlns="http://www.w3.org/2000/svg">
<path d="M38.5833 14.1536C33.7456 14.1536 29.4429 16.4825 26.7358 20.0782C24.0337 16.4313 19.6996 14.0611 14.8206 14.0611C6.64803 14.0611 0 20.7092 0 28.8817V40.7903H5.82219V28.8817C5.82219 23.92 9.8589 19.8833 14.8206 19.8833C19.7822 19.8833 23.406 23.5236 23.7859 28.1401C23.771 28.4159 23.7628 28.6934 23.7628 28.9742V40.8828H29.585V40.792H29.6411V28.8833C29.6411 28.6389 29.6345 28.3977 29.623 28.1566C30.0375 23.5781 33.8975 19.9775 38.5817 19.9775C43.5384 19.9775 47.5735 24.0076 47.5801 28.9626L47.4694 42.1546V42.1794C47.4694 47.1411 43.4327 51.1778 38.471 51.1778H37.6997C39.6272 48.6755 40.7768 45.5439 40.7768 42.148V28.6323H34.9546V42.148C34.9546 47.1097 30.9179 51.1464 25.9562 51.1464C20.9946 51.1464 16.9578 47.1097 16.9578 42.148L16.9149 37.7281L11.0927 37.7843L11.134 42.1629C11.1423 50.3288 17.787 56.9686 25.9546 56.9686C26.1577 56.9686 26.3592 56.9636 26.5591 56.9554V57H38.4677C46.6353 57 53.2817 50.3585 53.2883 42.1926L53.399 28.999V28.9742C53.399 20.8017 46.7509 14.1536 38.5784 14.1536H38.5833Z" fill="#EBE96B"/>
<path d="M39.4303 12.2963C42.571 11.7865 44.7037 8.82728 44.1939 5.68663C43.6841 2.54598 40.7248 0.413259 37.5842 0.923058C34.4435 1.43286 32.3108 4.39213 32.8206 7.53278C33.3304 10.6734 36.2897 12.8061 39.4303 12.2963Z" fill="#EBE96B"/>
<path d="M15.5305 12.2972C18.6711 11.7874 20.8038 8.82813 20.294 5.68748C19.7842 2.54684 16.825 0.414113 13.6843 0.923912C10.5437 1.43371 8.41095 4.39298 8.92075 7.53363C9.43055 10.6743 12.3898 12.807 15.5305 12.2972Z" fill="#EBE96B"/>
</svg>
